<svg width="740" height="418" viewBox="0 0 740 418" fill="none" xmlns="http://www.w3.org/2000/svg">
<path d="M585.467 139.949C542.513 103.935 471.735 118.373 422.012 129.647C391.815 136.492 361.29 143.78 330.183 144.416C301.265 145.005 279.073 136.842 253.315 125.268C237.139 117.999 225.176 106.514 209.91 97.9614C194.165 89.1393 177.612 81.481 159.859 77.7656C129.33 71.3754 104.752 80.2246 90.6578 108.029C77.1219 134.73 74.6437 166.053 76.4359 195.499C77.5382 213.602 80.5521 232.098 85.8246 249.823C102.798 306.861 155.45 345.823 214.966 345.823H619.739C632.719 330.618 640.921 312.962 645.122 293.479C657.286 237.074 629.686 177.022 585.467 139.949Z" fill="url(#paint0_radial)"/>
<path d="M320.281 359.698L378.479 373.187" stroke="#EECFF8" stroke-width="0.385417" stroke-miterlimit="10"/>
<path d="M381.563 373.188L361.135 362.396" stroke="#EECFF8" stroke-width="0.385417" stroke-miterlimit="10"/>
<path d="M348.031 373.958L287.521 375.5" stroke="#EECFF8" stroke-width="0.385417" stroke-miterlimit="10"/>
<path d="M364.284 373.974C365.028 373.974 365.028 372.818 364.284 372.818C363.54 372.818 363.536 373.974 364.284 373.974Z" fill="#EECFF8"/>
<path d="M385.316 369.106C386.06 369.106 386.06 367.95 385.316 367.95C384.573 367.95 384.569 369.106 385.316 369.106Z" fill="#EECFF8"/>
<path d="M385.509 375.334C386.253 375.334 386.253 374.178 385.509 374.178C384.765 374.178 384.765 375.334 385.509 375.334Z" fill="#EECFF8"/>
<path d="M275.677 374.752C276.421 374.752 276.421 373.596 275.677 373.596C274.933 373.596 274.933 374.752 275.677 374.752Z" fill="#EECFF8"/>
<path d="M329.428 351.577C330.171 351.577 330.171 350.421 329.428 350.421C328.684 350.421 328.68 351.577 329.428 351.577Z" fill="#EECFF8"/>
<path d="M304.109 339.895C304.853 339.895 304.853 338.739 304.109 338.739C303.365 338.739 303.365 339.895 304.109 339.895Z" fill="#EECFF8"/>
<path d="M471.75 373.38H521.083" stroke="#EECFF8" stroke-width="0.385417" stroke-miterlimit="10"/>
<path d="M529.177 373.38H629.385" stroke="#EECFF8" stroke-width="0.385417" stroke-miterlimit="10"/>
<path d="M498.922 368.37H539.776" stroke="#EECFF8" stroke-width="0.385417" stroke-miterlimit="10"/>
<path d="M576.098 349.762C576.098 349.762 577.393 351.92 584.731 352.352C592.069 352.784 592.069 359.69 596.386 359.69C600.703 359.69 598.544 355.805 596.818 354.079C595.091 352.352 591.638 349.33 591.638 349.33C591.638 349.33 586.026 348.035 584.299 345.877C582.573 343.719 577.824 341.992 577.824 341.992L576.098 349.762Z" fill="#FB8F8F"/>
<path d="M576.098 349.762C576.098 349.762 577.393 351.92 584.731 352.352C592.069 352.784 592.069 359.69 596.386 359.69C600.703 359.69 598.544 355.805 596.818 354.079C595.091 352.352 591.638 349.33 591.638 349.33C591.638 349.33 586.026 348.035 584.299 345.877C582.573 343.719 577.824 341.992 577.824 341.992L576.098 349.762Z" fill="url(#paint1_radial)"/>
<path d="M576.098 349.762C576.098 349.762 577.393 351.92 584.731 352.352C592.069 352.784 592.069 359.69 596.386 359.69C600.703 359.69 598.544 355.805 596.818 354.079C595.091 352.352 591.638 349.33 591.638 349.33C591.638 349.33 586.026 348.035 584.299 345.877C582.573 343.719 577.824 341.992 577.824 341.992L576.098 349.762Z" fill="url(#paint2_radial)"/>
<path d="M529.474 340.693C529.474 340.693 527.747 345.441 523.862 350.19C523.862 350.19 521.704 351.485 525.157 353.643C528.61 355.801 533.359 357.96 533.79 361.845C533.79 361.845 534.222 363.571 532.064 364.003C529.905 364.435 526.452 362.276 526.452 362.276C526.452 362.276 522.999 358.823 519.545 357.096C516.092 355.37 512.639 353.643 512.639 351.485C512.639 349.326 516.524 342.851 516.524 342.851C516.524 342.851 526.02 334.218 529.474 340.693Z" fill="#FB8F8F"/>
<path d="M529.474 340.693C529.474 340.693 527.747 345.441 523.862 350.19C523.862 350.19 521.704 351.485 525.157 353.643C528.61 355.801 533.359 357.96 533.79 361.845C533.79 361.845 534.222 363.571 532.064 364.003C529.905 364.435 526.452 362.276 526.452 362.276C526.452 362.276 522.999 358.823 519.545 357.096C516.092 355.37 512.639 353.643 512.639 351.485C512.639 349.326 516.524 342.851 516.524 342.851C516.524 342.851 526.02 334.218 529.474 340.693Z" fill="url(#paint3_radial)"/>
<path d="M529.474 340.693C529.474 340.693 527.747 345.441 523.862 350.19C523.862 350.19 521.704 351.485 525.157 353.643C528.61 355.801 533.359 357.96 533.79 361.845C533.79 361.845 534.222 363.571 532.064 364.003C529.905 364.435 526.452 362.276 526.452 362.276C526.452 362.276 522.999 358.823 519.545 357.096C516.092 355.37 512.639 353.643 512.639 351.485C512.639 349.326 516.524 342.851 516.524 342.851C516.524 342.851 526.02 334.218 529.474 340.693Z" fill="url(#paint4_radial)"/>
<path d="M551.87 323.291C545.615 323.827 539.321 322.998 533.351 321.048C526.548 318.824 514.127 315.884 502.703 319.11C493.11 321.815 487.579 327.465 481.563 331.986C475.284 336.7 467.422 338.789 459.617 337.922L454.58 337.363C454.117 337.313 453.843 337.868 454.167 338.203C455.69 339.772 460.361 342.501 473.777 340.265C491.911 337.244 497.954 329.474 497.954 329.474C497.954 329.474 498.386 337.244 496.228 341.129C494.069 345.014 488.026 351.489 488.026 351.489L492.774 364.007C492.774 364.007 495.796 365.302 500.113 364.007L501.408 362.712C501.408 362.712 501.839 359.259 498.818 358.827C498.818 358.827 496.659 357.964 497.954 354.078C499.249 350.194 501.408 348.898 510.904 348.898C520.401 348.898 524.722 342.424 524.722 342.424C524.722 342.424 532.923 342.855 538.539 347.604C544.15 352.352 559.694 357.963 568.759 354.942C568.759 354.942 572.644 358.827 573.076 361.849C573.508 364.87 573.939 366.597 578.688 366.165C578.688 366.165 582.141 365.734 581.278 363.144C580.414 360.554 578.256 363.144 577.393 359.69C576.529 356.237 576.098 352.352 576.098 352.352C576.098 352.352 582.141 350.194 581.278 339.834C580.414 329.474 584.731 323.858 590.774 324.721C596.818 325.585 602.861 326.448 602.861 326.448C602.861 326.448 608.041 328.175 613.653 324.29C619.264 320.405 620.128 318.246 620.128 318.246L619.696 316.088C619.696 316.088 605.015 310.476 603.289 309.181C601.562 307.886 595.519 302.275 595.519 302.275C595.519 302.275 579.112 302.275 575.227 306.16C571.342 310.045 565.73 319.541 560.114 321.704C557.999 322.517 555.004 323.025 551.87 323.291Z" fill="#FB8F8F"/>
<path d="M566.062 317.163C566.062 317.163 573.728 327.092 584.088 327.955L581.632 332.599C581.632 332.599 568.979 330.113 563.14 319.896L566.062 317.163Z" fill="url(#paint5_radial)"/>
<path d="M551.87 323.291C545.615 323.827 539.321 322.998 533.351 321.048C526.548 318.824 514.127 315.884 502.703 319.11C493.121 321.811 487.594 327.45 481.586 331.967C475.296 336.696 467.406 338.789 459.582 337.918L454.58 337.363C454.117 337.313 453.843 337.868 454.167 338.203C455.69 339.772 460.361 342.501 473.777 340.265C491.911 337.244 497.954 329.474 497.954 329.474C497.954 329.474 498.386 337.244 496.228 341.129C494.069 345.014 488.026 351.489 488.026 351.489L492.774 364.007C492.774 364.007 495.796 365.302 500.113 364.007L501.408 362.712C501.408 362.712 501.839 359.259 498.818 358.827C498.818 358.827 496.659 357.964 497.954 354.078C499.249 350.194 501.408 348.898 510.904 348.898C520.401 348.898 524.722 342.424 524.722 342.424C524.722 342.424 532.923 342.855 538.539 347.604C544.15 352.352 559.694 357.963 568.759 354.942C568.759 354.942 572.644 358.827 573.076 361.849C573.508 364.87 573.939 366.597 578.688 366.165C578.688 366.165 582.141 365.734 581.278 363.144C580.414 360.554 578.256 363.144 577.393 359.69C576.529 356.237 576.098 352.352 576.098 352.352C576.098 352.352 582.141 350.194 581.278 339.834C580.414 329.474 584.731 323.858 590.774 324.721C596.818 325.585 602.861 326.448 602.861 326.448C602.861 326.448 608.041 328.175 613.653 324.29C619.264 320.405 620.128 318.246 620.128 318.246L619.696 316.088C619.696 316.088 605.015 310.476 603.289 309.181C601.562 307.886 595.519 302.275 595.519 302.275C595.519 302.275 579.112 302.275 575.227 306.16C571.342 310.045 565.73 319.541 560.114 321.704C557.999 322.517 555.004 323.025 551.87 323.291Z" fill="url(#paint6_radial)"/>
<path d="M510.908 348.899C515.337 348.899 518.64 347.492 520.902 345.985C519.727 345.175 518.462 344.489 517.094 343.965C513.317 342.508 509.085 342.277 505.077 342.046C501.423 341.838 497.927 342 494.698 343.48C492.042 347.176 488.022 351.485 488.022 351.485L492.771 364.003C492.771 364.003 495.792 365.298 500.109 364.003L501.404 362.708C501.404 362.708 501.836 359.255 498.814 358.823C498.814 358.823 496.656 357.96 497.951 354.075C499.246 350.19 501.412 348.899 510.908 348.899Z" fill="url(#paint7_radial)"/>
<path d="M577.393 359.69C577.115 358.58 576.884 357.432 576.695 356.376C574.745 356.229 572.802 356.761 571.288 358.002C572.128 359.208 572.895 360.604 573.072 361.849C573.504 364.87 573.935 366.597 578.684 366.165C578.684 366.165 582.137 365.734 581.274 363.144C580.418 360.554 578.256 363.144 577.393 359.69Z" fill="url(#paint8_radial)"/>
<path d="M603.297 309.178C603.035 308.981 602.672 308.684 602.248 308.326C601.678 308.484 601.111 308.649 600.549 308.831C595.496 310.465 590.25 313.128 587.722 318.042C586.5 320.424 585.98 323.06 585.756 325.735C587.194 324.81 588.901 324.455 590.774 324.721C596.818 325.585 602.861 326.448 602.861 326.448C602.861 326.448 608.041 328.175 613.653 324.29C619.264 320.405 620.128 318.246 620.128 318.246L619.696 316.088C619.704 316.084 605.023 310.473 603.297 309.178Z" fill="url(#paint9_radial)"/>
<path d="M594.59 307.47C594.467 308.148 594.139 308.769 593.703 309.305C592.593 310.665 590.204 314.693 591.214 323.423C592.509 334.646 580.854 335.509 579.127 328.171C577.874 322.844 578.441 315.699 578.846 312.18C579.004 310.819 579.821 309.632 581.031 308.993C585.375 306.692 595.607 301.808 594.59 307.47Z" fill="url(#paint10_radial)"/>
<path d="M598.98 308.314H599.843L602.865 309.178L604.16 311.336L601.57 313.926L598.98 314.789C596.39 311.768 598.98 308.314 598.98 308.314Z" fill="url(#paint11_radial)"/>
<path d="M620.135 318.243L619.704 316.084C619.704 316.084 619.179 315.884 618.316 315.548C618.316 315.548 614.955 316.516 615.387 318.243C615.668 319.372 617.611 319.761 618.921 319.896C619.904 318.817 620.135 318.243 620.135 318.243Z" fill="url(#paint12_radial)"/>
<path d="M599.412 313.278C600.009 313.278 600.491 312.505 600.491 311.552C600.491 310.598 600.009 309.825 599.412 309.825C598.814 309.825 598.333 310.598 598.333 311.552C598.333 312.505 598.814 313.278 599.412 313.278Z" fill="url(#paint13_radial)"/>
<path d="M601.354 323.211C601.354 323.211 602.649 325.369 606.534 326.232" stroke="#0061FE" stroke-width="0.385417" stroke-miterlimit="10"/>
<path d="M593.8 322.563C592.166 318.832 592.081 314.593 593.8 309.174C593.765 309.216 593.738 309.266 593.704 309.309C592.594 310.669 590.204 314.697 591.214 323.426C591.268 323.904 591.291 324.355 591.302 324.795C592.713 324.995 594.112 325.195 595.426 325.384C594.571 324.305 594.062 323.157 593.8 322.563Z" fill="url(#paint14_radial)"/>
<path d="M568.759 354.942C566.601 352.352 566.601 350.625 566.601 350.625C567.896 345.445 566.601 343.719 566.601 343.719C566.601 348.035 564.443 350.194 564.443 350.194C564.443 350.194 553.651 354.51 545.014 345.445C536.381 336.38 535.517 335.517 535.517 335.517C529.474 335.517 524.726 342.424 524.726 342.424L525.196 342.462C527.007 342.635 533.725 343.53 538.543 347.604C544.151 352.352 559.694 357.963 568.759 354.942Z" fill="url(#paint15_radial)"/>
<path d="M611.772 320.94C612.331 320.94 612.331 320.073 611.772 320.073C611.217 320.073 611.213 320.94 611.772 320.94Z" fill="#0061FE"/>
<path d="M610.138 323.523C610.512 323.523 610.512 322.945 610.138 322.945C609.764 322.945 609.764 323.523 610.138 323.523Z" fill="#0061FE"/>
<path d="M608.719 321.669C609.093 321.669 609.093 321.091 608.719 321.091C608.349 321.091 608.346 321.669 608.719 321.669Z" fill="#0061FE"/>
<path d="M605.667 321.414C605.852 321.414 605.852 321.125 605.667 321.125C605.478 321.125 605.478 321.414 605.667 321.414Z" fill="#0061FE"/>
<path d="M612.099 322.725C612.284 322.725 612.284 322.436 612.099 322.436C611.914 322.436 611.914 322.725 612.099 322.725Z" fill="#0061FE"/>
<path d="M562.5 318.89C563.452 318.89 564.227 318.117 564.227 317.163C564.227 316.21 563.452 315.437 562.5 315.437C561.548 315.437 560.773 316.21 560.773 317.163C560.773 318.117 561.548 318.89 562.5 318.89Z" stroke="#0144B9" stroke-width="0.385417" stroke-miterlimit="10"/>
<path d="M563.907 318.165L564.508 318.72" stroke="#0144B9" stroke-width="0.385417" stroke-miterlimit="10"/>
<path d="M566.755 326.359C566.755 326.359 571.766 332.141 578.703 332.911" stroke="#0061FE" stroke-width="0.385417" stroke-miterlimit="10"/>
<path d="M590.266 323.276C590.266 323.276 590.651 328.672 587.953 330.599" stroke="#F1D23C" stroke-width="0.385417" stroke-miterlimit="10"/>
<path d="M510.099 347.557C510.099 347.557 519.349 347.557 523.203 342.161" stroke="#F1D23C" stroke-width="0.385417" stroke-miterlimit="10"/>
<path d="M540.932 347.557C540.932 347.557 547.87 352.953 556.349 353.724" stroke="#EECFF8" stroke-width="0.385417" stroke-miterlimit="10"/>
<path d="M496.031 116.885H437.062V151.958H496.031V116.885Z" stroke="#DEF4FF" stroke-width="0.385417" stroke-miterlimit="10"/>
<path d="M492.562 112.646H433.594V147.719H492.562V112.646Z" fill="url(#paint16_radial)"/>
<path d="M501.62 103.974C513.329 103.974 522.818 94.4835 522.818 82.776C522.818 71.0686 513.329 61.5781 501.62 61.5781C489.911 61.5781 480.422 71.0686 480.422 82.776C480.422 94.4835 489.911 103.974 501.62 103.974Z" stroke="#0061FE" stroke-width="0.385417" stroke-miterlimit="10"/>
<path d="M506.245 103.974C517.954 103.974 527.443 94.4835 527.443 82.776C527.443 71.0686 517.954 61.5781 506.245 61.5781C494.536 61.5781 485.047 71.0686 485.047 82.776C485.047 94.4835 494.536 103.974 506.245 103.974Z" fill="#DEF4FF"/>
<path d="M498.344 99.9271H452.865V122.281H498.344V99.9271Z" fill="#FFDE99"/>
<path d="M498.344 99.9271H452.865V122.281H498.344V99.9271Z" fill="url(#paint17_radial)"/>
<path d="M475.411 111.297L452.865 100.216V122.281H498.344V100.023L475.411 111.297Z" fill="url(#paint18_radial)"/>
<path d="M503.162 94.724H457.682V117.078H503.162V94.724Z" fill="#FFDE99"/>
<path d="M480.229 106.094L457.682 95.013V117.078H503.162V94.8203L480.229 106.094Z" fill="url(#paint19_radial)"/>
<path d="M499.115 101.854H508.75" stroke="#0061FE" stroke-width="0.385417" stroke-miterlimit="10"/>
<path d="M499.115 103.974H508.75" stroke="#0061FE" stroke-width="0.385417" stroke-miterlimit="10"/>
<path d="M499.115 106.286H508.75" stroke="#0061FE" stroke-width="0.385417" stroke-miterlimit="10"/>
<path d="M472.906 127.677H421.26V131.917H472.906V127.677Z" fill="url(#paint20_radial)"/>
<path d="M472.906 134.229H421.26V138.469H472.906V134.229Z" fill="url(#paint21_radial)"/>
<path d="M506.245 82.803C508.8 82.803 510.87 80.7322 510.87 78.178C510.87 75.6239 508.8 73.553 506.245 73.553C503.69 73.553 501.62 75.6239 501.62 78.178C501.62 80.7322 503.69 82.803 506.245 82.803Z" fill="#0061FE"/>
<path d="M516.038 91.9991C514.597 87.7633 510.754 84.7301 506.245 84.7301C501.735 84.7301 497.893 87.7595 496.451 91.9991H516.038Z" fill="#0061FE"/>
<path d="M565.406 120.74H528.406V112.26L524.552 104.167H528.406V95.6875H565.406V120.74Z" fill="#0061FE"/>
<path d="M544.979 99.5417H581.979V91.0625L585.833 82.9688H581.979V74.4896H544.979V99.5417Z" stroke="#0061FE" stroke-width="0.385417" stroke-miterlimit="10"/>
<path d="M547.87 78.5365C548.51 78.5365 549.026 78.0189 549.026 77.3802C549.026 76.7416 548.51 76.224 547.87 76.224C547.23 76.224 546.714 76.7416 546.714 77.3802C546.714 78.0189 547.23 78.5365 547.87 78.5365Z" stroke="#0061FE" stroke-width="0.385417" stroke-miterlimit="10"/>
<path d="M546.521 111.104C548.012 111.104 549.219 109.896 549.219 108.406C549.219 106.916 548.012 105.708 546.521 105.708C545.029 105.708 543.823 106.916 543.823 108.406C543.823 109.896 545.029 111.104 546.521 111.104Z" fill="white"/>
<path d="M537.271 111.104C538.762 111.104 539.969 109.896 539.969 108.406C539.969 106.916 538.762 105.708 537.271 105.708C535.779 105.708 534.573 106.916 534.573 108.406C534.573 109.896 535.779 111.104 537.271 111.104Z" fill="white"/>
<path d="M555.771 111.104C557.262 111.104 558.469 109.896 558.469 108.406C558.469 106.916 557.262 105.708 555.771 105.708C554.279 105.708 553.073 106.916 553.073 108.406C553.073 109.896 554.279 111.104 555.771 111.104Z" fill="white"/>
<path d="M545.222 139.733C541.626 137.644 537.178 137.675 533.609 139.818C530.044 141.957 525.597 141.991 521.997 139.902L521.712 139.737C518.116 137.648 513.668 137.679 510.099 139.822C506.534 141.961 502.086 141.995 498.486 139.906L498.201 139.741C494.605 137.652 490.158 137.682 486.589 139.825" stroke="#0061FE" stroke-width="0.385417" stroke-miterlimit="10"/>
<path d="M576.391 63.8906C579.582 63.8906 582.172 61.3022 582.172 58.1094C582.172 54.9166 579.582 52.3281 576.391 52.3281C573.199 52.3281 570.609 54.9166 570.609 58.1094C570.609 61.3022 573.199 63.8906 576.391 63.8906Z" stroke="#FA404B" stroke-width="0.385417" stroke-miterlimit="10"/>
<path d="M561.552 122.667H566.948V117.271" stroke="#FA404B" stroke-width="0.385417" stroke-miterlimit="10"/>
<path d="M184.09 252.19C184.09 252.19 178.918 250.667 173.426 250.69C171.19 250.698 169.04 249.854 167.448 248.282C166.804 247.646 166.145 246.809 165.594 246.042C164.793 244.932 163.235 244.705 162.152 245.541C155.828 250.444 137.32 266.022 138.754 279.331C138.85 280.225 139.964 280.583 140.565 279.913C143.051 277.149 149.353 270.759 162.935 259.956C162.935 259.956 172.431 259.956 178.047 264.273C183.663 268.589 184.09 252.19 184.09 252.19Z" fill="#FFDE99"/>
<path d="M184.09 252.19C184.09 252.19 178.918 250.667 173.426 250.69C171.19 250.698 169.04 249.854 167.448 248.282C166.804 247.646 166.145 246.809 165.594 246.042C164.793 244.932 163.235 244.705 162.152 245.541C155.828 250.444 137.32 266.022 138.754 279.331C138.85 280.225 139.964 280.583 140.565 279.913C143.051 277.149 149.353 270.759 162.935 259.956C162.935 259.956 172.431 259.956 178.047 264.273C183.663 268.589 184.09 252.19 184.09 252.19Z" fill="url(#paint22_radial)"/>
<path d="M293.749 245.283C293.749 245.283 262.234 284.569 241.51 294.069C241.51 294.069 179.774 271.187 173.295 262.985C173.295 262.985 175.885 251.33 181.497 250.035C187.108 248.74 220.135 255 233.52 269.68C233.52 269.68 249.064 213.124 268.489 208.376C287.922 203.62 293.749 245.283 293.749 245.283Z" fill="#0144B9"/>
<path d="M293.749 245.283C293.749 245.283 262.234 284.569 241.51 294.069C241.51 294.069 179.774 271.187 173.295 262.985C173.295 262.985 175.885 251.33 181.497 250.035C187.108 248.74 220.135 255 233.52 269.68C233.52 269.68 249.064 213.124 268.489 208.376C287.922 203.62 293.749 245.283 293.749 245.283Z" fill="url(#paint23_radial)"/>
<path d="M384.411 353.215C384.411 353.215 391.317 359.69 394.339 364.87C395.326 366.558 395.942 367.834 396.328 368.79C397.804 372.44 402.109 374.101 405.57 372.228C406.954 371.48 428.472 360.754 437.382 346.278C437.787 345.622 437.159 344.67 436.45 344.967C430.171 347.604 423.685 349.766 415.059 353.215C404.792 357.324 399.084 348.898 393.904 342.423C388.727 335.945 384.411 353.215 384.411 353.215Z" fill="#FFDE99"/>
<path d="M384.411 353.215C384.411 353.215 391.317 359.69 394.339 364.87C395.326 366.558 395.942 367.834 396.328 368.79C397.804 372.44 402.109 374.101 405.57 372.228C406.954 371.48 428.472 360.754 437.382 346.278C437.787 345.622 437.159 344.67 436.45 344.967C430.171 347.604 423.685 349.766 415.059 353.215C404.792 357.324 399.084 348.898 393.904 342.423C388.727 335.945 384.411 353.215 384.411 353.215Z" fill="url(#paint24_radial)"/>
<path d="M304.109 201.245C304.109 201.245 347.284 272.05 363.255 291.907C379.231 311.768 396.929 342.42 396.929 342.42C396.929 342.42 385.706 357.964 382.68 356.669C379.659 355.374 380.522 354.942 380.09 352.352C379.659 349.762 319.649 286.731 309.285 269.46C298.925 252.19 295.904 250.895 295.904 250.895C295.904 250.895 259.208 238.376 257.482 214.199C255.755 190.022 277.774 188.727 277.774 188.727L304.109 201.245Z" fill="#0061FE"/>
<path d="M315.552 227.797L348.794 277.878" stroke="#DEF4FF" stroke-width="0.385417" stroke-miterlimit="10"/>
<path d="M349.01 302.271C332.603 291.911 329.15 277.23 315.336 256.506C308.911 246.867 300.991 240.5 294.358 236.442C285.12 230.791 280.622 219.823 283.339 209.339C284.777 203.789 286.565 198.258 288.176 193.668L277.778 188.723C277.778 188.723 276.853 188.777 275.4 189.07L275.188 189.155L263.625 195.029C259.771 198.775 256.811 204.733 257.485 214.195C259.212 238.373 295.908 250.891 295.908 250.891C295.908 250.891 298.929 252.186 309.289 269.456C319.649 286.727 379.662 349.758 380.094 352.348C380.526 354.938 379.662 355.37 382.684 356.665C384.133 357.285 387.475 354.028 390.558 350.471C382.549 338.955 361.995 310.472 349.01 302.271Z" fill="url(#paint25_radial)"/>
<path d="M349.01 302.271C332.603 291.911 329.15 277.23 315.336 256.506C301.523 235.783 280.799 230.171 280.799 230.171C279.45 220.998 284.326 204.645 288.176 193.668L277.778 188.723C277.778 188.723 276.853 188.777 275.4 189.07L275.188 189.155L263.625 195.029C259.771 198.775 256.811 204.733 257.485 214.195C259.212 238.373 295.908 250.891 295.908 250.891C295.908 250.891 298.929 252.186 309.289 269.456C319.649 286.727 379.662 349.758 380.094 352.348C380.526 354.938 379.662 355.37 382.684 356.665C384.133 357.285 387.475 354.028 390.558 350.471C382.549 338.955 361.995 310.472 349.01 302.271Z" fill="url(#paint26_radial)"/>
<path d="M419.919 201.839C419.919 201.839 437.082 200.382 439.672 201.245C439.672 201.245 440.104 199.95 436.65 198.224C433.197 196.497 426.722 197.36 426.722 197.36L418.52 197.792L419.919 201.839Z" fill="url(#paint27_radial)"/>
<path d="M335.197 195.202C335.197 195.202 334.334 197.36 337.355 199.087C340.377 200.814 362.396 206.857 396.07 204.267C396.07 204.267 413.772 201.245 416.362 202.109C416.362 202.109 425.858 191.317 427.153 191.317C428.448 191.317 422.405 189.159 415.498 197.36L403.412 199.519H388.731L383.12 197.792C383.12 197.792 361.101 192.612 346.856 181.817C332.603 171.025 335.197 195.202 335.197 195.202Z" fill="#FFDE99"/>
<path d="M335.197 195.202C335.197 195.202 334.334 197.36 337.355 199.087C340.377 200.814 362.396 206.857 396.07 204.267C396.07 204.267 413.772 201.245 416.362 202.109C416.362 202.109 425.858 191.317 427.153 191.317C428.448 191.317 422.405 189.159 415.498 197.36L403.412 199.519H388.731L383.12 197.792C383.12 197.792 361.101 192.612 346.856 181.817C332.603 171.025 335.197 195.202 335.197 195.202Z" fill="url(#paint28_radial)"/>
<path d="M339.945 134.761C339.945 134.761 345.557 170.593 344.694 175.342C344.694 175.342 347.715 174.047 348.579 175.342C349.442 176.637 348.579 178.795 348.579 178.795L350.737 181.817C350.737 181.817 337.355 197.36 335.193 197.36C333.744 197.36 331.516 194.246 330.206 192.2C329.662 191.348 329.566 190.273 330.017 189.371C330.252 188.901 330.445 188.261 330.445 187.432C330.445 185.274 325.265 177.072 324.401 152.032C323.538 126.987 339.945 134.761 339.945 134.761Z" fill="#F1D23C"/>
<path d="M339.945 134.761C339.945 134.761 345.557 170.593 344.694 175.342C344.694 175.342 347.715 174.047 348.579 175.342C349.442 176.637 348.579 178.795 348.579 178.795L350.737 181.817C350.737 181.817 337.355 197.36 335.193 197.36C333.744 197.36 331.516 194.246 330.206 192.2C329.662 191.348 329.566 190.273 330.017 189.371C330.252 188.901 330.445 188.261 330.445 187.432C330.445 185.274 325.265 177.072 324.401 152.032C323.538 126.987 339.945 134.761 339.945 134.761Z" fill="url(#paint29_radial)"/>
<path d="M336.492 137.783C336.492 137.783 323.769 177.908 318.358 188.727C315.336 194.77 309.293 201.245 309.293 201.245C302.818 202.54 286.843 194.77 286.843 194.77L304.113 153.754L336.492 137.783Z" fill="#FB8F8F"/>
<path d="M350.737 104.541C350.737 104.541 345.557 108.426 339.082 123.969L333.038 118.358L328.722 111.883L327.858 107.134C327.858 107.134 339.082 99.796 337.787 88.5689C336.492 77.3417 358.075 89.86 350.737 104.541Z" fill="#FFDE99"/>
<path d="M350.737 104.541C350.737 104.541 345.557 108.426 339.082 123.969L333.038 118.358L328.722 111.883L327.858 107.134C327.858 107.134 339.082 99.796 337.787 88.5689C336.492 77.3417 358.075 89.86 350.737 104.541Z" fill="url(#paint30_radial)"/>
<path d="M361.96 70.4311C361.96 70.4311 362.823 104.105 357.212 108.853C357.212 108.853 348.578 109.285 344.693 105.4C339.513 100.22 338.218 94.6083 338.218 94.6083V89.4283L330.448 86.4067L326.995 75.615L332.607 69.14L348.151 66.9817L358.079 67.4133L361.96 70.4311Z" fill="#FFDE99"/>
<path d="M361.96 70.4311C361.96 70.4311 362.823 104.105 357.212 108.853C357.212 108.853 348.578 109.285 344.693 105.4C339.513 100.22 338.218 94.6083 338.218 94.6083V89.4283L330.448 86.4067L326.995 75.615L332.607 69.14L348.151 66.9817L358.079 67.4133L361.96 70.4311Z" fill="url(#paint31_radial)"/>
<path d="M359.713 103.631C360.808 99.426 361.39 93.4945 361.694 87.8057C358.522 84.4835 345.125 88.1372 345.125 88.1372V88.5689L342.535 100.224L354.19 106.699L359.713 103.631Z" fill="url(#paint32_radial)"/>
<path d="M348.972 75.0677C349.272 73.7766 350.012 72.6126 351.099 71.8495C351.97 71.2405 352.942 70.9399 353.547 71.942C354.842 74.1003 357.863 79.712 363.907 77.122C369.95 74.532 366.065 65.8987 366.065 65.8987C366.065 65.8987 369.087 69.7837 367.792 72.3737C367.792 72.3737 373.835 66.762 368.223 58.1248C362.612 49.4876 354.842 63.3048 352.248 58.1248C349.654 52.9448 345.341 49.9231 341.456 53.3765C337.571 56.8298 338.003 58.1248 338.003 58.1248C338.003 58.1248 338.866 54.6715 335.413 55.1031C331.959 55.5348 330.233 56.8298 325.916 55.5348C321.599 54.2398 312.099 56.3981 317.283 70.647C322.463 84.8958 328.506 85.3275 327.211 87.9175C325.916 90.5075 323.758 95.6875 331.096 95.2558C338.434 94.8242 337.737 92.5464 337.737 92.5464L338.434 89.6442C338.434 89.6442 331.959 87.4858 335.844 82.3058C339.729 77.1258 341.888 82.3058 341.888 82.3058C341.888 82.3058 346.204 78.4208 347.931 73.2408C347.931 73.2408 346.204 80.1475 344.046 81.8742C344.046 81.8742 347.731 80.398 348.972 75.0677Z" fill="#241921"/>
<path d="M348.972 75.0677C349.272 73.7766 350.012 72.6126 351.099 71.8495C351.97 71.2405 352.942 70.9399 353.547 71.942C354.842 74.1003 357.863 79.712 363.907 77.122C369.95 74.532 366.065 65.8987 366.065 65.8987C366.065 65.8987 369.087 69.7837 367.792 72.3737C367.792 72.3737 373.835 66.762 368.223 58.1248C362.612 49.4876 354.842 63.3048 352.248 58.1248C349.654 52.9448 345.341 49.9231 341.456 53.3765C337.571 56.8298 338.003 58.1248 338.003 58.1248C338.003 58.1248 338.866 54.6715 335.413 55.1031C331.959 55.5348 330.233 56.8298 325.916 55.5348C321.599 54.2398 312.099 56.3981 317.283 70.647C322.463 84.8958 328.506 85.3275 327.211 87.9175C325.916 90.5075 323.758 95.6875 331.096 95.2558C338.434 94.8242 337.737 92.5464 337.737 92.5464L338.434 89.6442C338.434 89.6442 331.959 87.4858 335.844 82.3058C339.729 77.1258 341.888 82.3058 341.888 82.3058C341.888 82.3058 346.204 78.4208 347.931 73.2408C347.931 73.2408 346.204 80.1475 344.046 81.8742C344.046 81.8742 347.731 80.398 348.972 75.0677Z" fill="url(#paint33_radial)"/>
<path d="M341.24 116.627C341.24 116.627 334.765 113.606 332.175 106.267C329.585 98.9289 323.11 98.0655 323.11 98.0655C323.11 98.0655 321.384 97.6339 322.247 101.087C323.11 104.541 320.952 110.152 312.75 111.447C304.549 112.742 251.014 122.671 243.672 135.624C243.672 135.624 241.514 130.013 240.65 136.488V141.236C240.65 141.236 238.06 137.351 237.629 141.236C237.197 145.121 239.787 145.553 239.787 145.553L241.082 144.258C241.082 144.258 258.353 152.459 256.626 157.639C256.626 157.639 259.216 159.798 259.648 154.186C259.648 154.186 260.079 155.913 263.533 154.618L263.964 152.459C263.964 152.459 276.051 150.301 282.961 149.869C282.961 149.869 268.713 170.593 263.533 173.615C258.353 176.637 228.995 199.519 228.995 199.519L189.702 222.401C189.702 222.401 206.973 248.305 210.426 248.736L216.901 244.851C216.901 244.851 223.376 248.736 227.261 255.643C231.146 262.55 240.643 272.482 258.345 271.619C258.345 271.619 254.46 250.895 275.615 213.768C296.771 176.64 326.128 157.639 336.924 141.668C347.715 125.692 346.852 118.354 346.852 118.354L341.24 116.627Z" fill="#F1D23C"/>
<path d="M341.24 116.627C341.24 116.627 334.765 113.606 332.175 106.267C329.585 98.9289 323.11 98.0655 323.11 98.0655C323.11 98.0655 321.384 97.6339 322.247 101.087C323.11 104.541 320.952 110.152 312.75 111.447C304.549 112.742 251.014 122.671 243.672 135.624C243.672 135.624 241.514 130.013 240.65 136.488V141.236C240.65 141.236 238.06 137.351 237.629 141.236C237.197 145.121 239.787 145.984 239.787 145.984L240.65 144.689C240.65 144.689 258.353 152.459 256.626 157.639C256.626 157.639 259.216 159.798 259.648 154.186C259.648 154.186 260.079 155.913 263.533 154.618L263.964 152.459C263.964 152.459 276.051 150.301 282.961 149.869C282.961 149.869 268.713 170.593 263.533 173.615C258.353 176.637 228.995 199.519 228.995 199.519L189.702 222.401C189.702 222.401 206.973 248.305 210.426 248.736L216.901 244.851C216.901 244.851 223.376 248.736 227.261 255.643C231.146 262.55 240.643 272.482 258.345 271.619C258.345 271.619 254.46 250.895 275.615 213.768C296.771 176.64 326.128 157.639 336.924 141.668C347.715 125.692 346.852 118.354 346.852 118.354L341.24 116.627Z" fill="url(#paint34_radial)"/>
<path d="M346.852 118.354L341.241 116.627C341.241 116.627 334.766 113.606 332.176 106.267C329.586 98.9289 323.111 98.0655 323.111 98.0655C323.111 98.0655 321.384 97.6339 322.247 101.087C323.111 104.541 320.952 110.152 312.751 111.447C310.85 111.748 306.522 112.511 300.903 113.667C301.061 116.666 301.277 119.664 301.57 122.655C303.084 138.176 306.792 153.161 312.662 167.294C322.96 157.107 331.933 149.064 336.932 141.668C347.716 125.692 346.852 118.354 346.852 118.354Z" fill="url(#paint35_radial)"/>
<path d="M155.813 195.418C155.813 195.418 204.599 185.058 244.316 208.368C250.132 211.783 299.145 259.744 406.214 289.101C449.492 300.968 560.773 316.732 560.773 316.732" stroke="#0144B9" stroke-width="0.385417" stroke-miterlimit="10"/>
<path d="M256.622 158.071C256.622 158.071 239.552 185.636 235.998 194.52C235.998 194.52 241.945 197.792 243.24 199.519C244.535 201.245 247.125 207.72 251.442 209.447C251.442 209.447 248.42 212.037 246.262 210.31C244.104 208.584 244.104 208.584 244.104 208.584L246.262 211.174C246.262 211.174 243.672 214.627 241.945 214.195C240.219 213.764 240.65 214.627 238.492 214.195C236.334 213.764 235.039 212.469 235.039 212.469C235.039 212.469 235.039 213.764 233.744 213.332C232.745 213.001 228.429 208.167 226.49 205.554C225.889 204.745 225.689 203.704 225.943 202.729L228.132 194.335C228.132 194.335 230.722 159.366 240.65 144.686C240.647 144.689 259.644 150.733 256.622 158.071Z" fill="#FFDE99"/>
<path d="M256.622 158.071C256.622 158.071 239.552 185.636 235.998 194.52C235.998 194.52 241.945 197.792 243.24 199.519C244.535 201.245 247.125 207.72 251.442 209.447C251.442 209.447 248.42 212.037 246.262 210.31C244.104 208.584 244.104 208.584 244.104 208.584L246.262 211.174C246.262 211.174 243.672 214.627 241.945 214.195C240.219 213.764 240.65 214.627 238.492 214.195C236.334 213.764 235.039 212.469 235.039 212.469C235.039 212.469 235.039 213.764 233.744 213.332C232.745 213.001 228.429 208.167 226.49 205.554C225.889 204.745 225.689 203.704 225.943 202.729L228.132 194.335C228.132 194.335 230.722 159.366 240.65 144.686C240.647 144.689 259.644 150.733 256.622 158.071Z" fill="url(#paint36_radial)"/>
<path d="M448.983 199.634H348.205C347.395 199.634 346.74 198.979 346.74 198.17V197.819C346.74 197.01 347.395 196.354 348.205 196.354H448.983C449.793 196.354 450.448 197.01 450.448 197.819V198.17C450.448 198.975 449.793 199.634 448.983 199.634Z" fill="#241921"/>
<path d="M448.983 199.634H389.251C388.442 199.634 387.787 198.979 387.787 198.17V197.819C387.787 197.01 388.442 196.354 389.251 196.354H448.983C449.793 196.354 450.448 197.01 450.448 197.819V198.17C450.448 198.975 449.793 199.634 448.983 199.634Z" fill="#0061FE"/>
<path d="M464.604 144.905H405.805C405.011 144.905 404.31 145.414 404.063 146.166L388.581 193.117C388.188 194.304 389.074 195.53 390.323 195.53H449.122C449.916 195.53 450.618 195.021 450.864 194.269L466.347 147.318C466.74 146.127 465.853 144.905 464.604 144.905Z" fill="#0061FE"/>
<path d="M380.88 198.813H376.082C375.743 198.813 375.473 198.54 375.473 198.204V198.058C375.473 197.719 375.747 197.449 376.082 197.449H380.88C381.219 197.449 381.489 197.723 381.489 198.058V198.204C381.493 198.54 381.219 198.813 380.88 198.813Z" stroke="#0061FE" stroke-width="0.385417" stroke-miterlimit="10"/>
<path d="M446.417 198.948H441.618C441.279 198.948 441.009 198.675 441.009 198.339V198.193C441.009 197.854 441.283 197.584 441.618 197.584H446.417C446.756 197.584 447.026 197.858 447.026 198.193V198.339C447.029 198.675 446.756 198.948 446.417 198.948Z" stroke="#0061FE" stroke-width="0.385417" stroke-miterlimit="10"/>
<path d="M370.894 198.948H366.096C365.757 198.948 365.487 198.675 365.487 198.339V198.193C365.487 197.854 365.76 197.584 366.096 197.584H370.894C371.233 197.584 371.503 197.858 371.503 198.193V198.339C371.503 198.675 371.23 198.948 370.894 198.948Z" stroke="#0061FE" stroke-width="0.385417" stroke-miterlimit="10"/>
<path d="M384.576 198.948H384.43C384.091 198.948 383.821 198.675 383.821 198.339V198.193C383.821 197.854 384.095 197.584 384.43 197.584H384.576C384.916 197.584 385.185 197.858 385.185 198.193V198.339C385.185 198.675 384.912 198.948 384.576 198.948Z" stroke="#0061FE" stroke-width="0.385417" stroke-miterlimit="10"/>
<path d="M465.683 145.256C465.383 145.036 465.013 144.905 464.604 144.905H405.805C405.011 144.905 404.31 145.414 404.063 146.166L388.762 192.566L465.683 145.256Z" fill="url(#paint37_linear)"/>
<path d="M455.801 148.49L437.193 159.983" stroke="white" stroke-width="0.385417" stroke-miterlimit="10"/>
<path d="M413.768 202.54L423.847 201.392C423.847 201.392 430.41 193.815 433.744 192.566C433.744 192.566 431.466 190.454 426.286 194.77C421.106 199.087 421.538 198.655 421.538 198.655H415.926L413.768 202.54Z" fill="#FFDE99"/>
<path d="M413.768 202.54L423.847 201.392C423.847 201.392 430.41 193.815 433.744 192.566C433.744 192.566 431.466 190.454 426.286 194.77C421.106 199.087 421.538 198.655 421.538 198.655H415.926L413.768 202.54Z" fill="url(#paint38_radial)"/>
<path d="M415.495 197.36L403.408 199.519H403.327C401.103 199.519 398.902 199.947 396.817 200.721C393.121 202.097 386.48 203.458 385.178 204.83C388.654 204.737 392.285 204.556 396.066 204.267C396.066 204.267 412.041 202.972 416.358 202.109C416.358 202.109 425.855 191.317 427.15 191.317C428.445 191.317 422.405 189.159 415.495 197.36Z" fill="#FFDE99"/>
<path d="M216.901 244.851C216.901 244.851 210.858 239.671 210.426 243.125C209.994 246.578 211.289 248.305 210.426 248.736L216.901 244.851Z" fill="url(#paint39_radial)"/>
<path d="M211.274 241.938L211.301 241.972C213.085 241.583 216.897 244.851 216.897 244.851C216.897 244.851 223.372 248.736 227.257 255.643C228.036 257.031 229.049 258.538 230.302 260.06L257.52 208.588L211.274 241.938Z" fill="url(#paint40_radial)"/>
<path d="M246.259 211.174L244.459 209.015C244.459 209.015 241.51 206.425 241.51 203.835C241.51 201.712 232.8 206.553 226.807 205.982C228.865 208.661 232.792 213.02 233.736 213.336C235.031 213.768 235.031 212.473 235.031 212.473C235.031 212.473 236.326 213.768 238.485 214.199C240.643 214.631 240.211 213.768 241.938 214.199C243.669 214.631 246.259 211.174 246.259 211.174Z" fill="url(#paint41_radial)"/>
<path d="M341.025 120.296C341.025 120.296 340.161 134.977 314.651 158.194" stroke="white" stroke-width="0.385417" stroke-miterlimit="10"/>
<path d="M347.499 68.4886C347.499 68.4886 346.204 75.3953 341.024 78.8486" stroke="#0061FE" stroke-width="0.385417" stroke-miterlimit="10"/>
<path d="M344.478 70.2153C344.478 70.2153 342.319 75.827 334.118 79.712" stroke="#0061FE" stroke-width="0.385417" stroke-miterlimit="10"/>
<path d="M394.775 341.125C394.775 341.125 389.595 350.19 383.12 354.075" stroke="#DEF4FF" stroke-width="0.385417" stroke-miterlimit="10"/>
<path d="M176.104 262.766C176.104 262.766 177.195 255.504 182.048 252.013" stroke="#DEF4FF" stroke-width="0.385417" stroke-miterlimit="10"/>
<path d="M77.2105 282.599C75.2911 285.131 75.3682 288.982 77.3916 291.433C79.7273 294.262 83.9668 295.013 86.1714 297.943C87.8518 300.174 87.9251 303.485 86.3449 305.79" stroke="#0061FE" stroke-width="0.385417" stroke-miterlimit="10"/>
<path d="M629.385 265.464C630.981 265.464 632.276 264.169 632.276 262.573C632.276 260.977 630.981 259.682 629.385 259.682C627.79 259.682 626.495 260.977 626.495 262.573C626.495 264.169 627.79 265.464 629.385 265.464Z" stroke="#0061FE" stroke-width="0.385417" stroke-miterlimit="10"/>
<path d="M127.578 149.786L123.856 150.787L124.858 154.509L128.58 153.507L127.578 149.786Z" stroke="#FA404B" stroke-width="0.385417" stroke-miterlimit="10"/>
<path d="M433.401 241.182C433.401 241.182 447.276 225.766 467.318 234.245" stroke="#FA404B" stroke-width="0.385417" stroke-miterlimit="10"/>
<path d="M158.984 297.453L152.818 306.703" stroke="#FA404B" stroke-width="0.385417" stroke-miterlimit="10"/>
<path d="M210.63 65.0469L216.411 69.2865" stroke="#FA404B" stroke-width="0.385417" stroke-miterlimit="10"/>
<path d="M579.99 206.132C584.465 207.212 589.522 205.138 591.954 201.226C592.844 199.792 593.399 198.166 594.297 196.732C595.954 194.092 598.802 192.23 601.886 191.772" stroke="#0061FE" stroke-width="0.385417" stroke-miterlimit="10"/>
<defs>
<radialGradient id="paint0_radial" cx="0" cy="0" r="1" gradientUnits="userSpaceOnUse" gradientTransform="translate(333.613 80.218) scale(389.101)">
<stop stop-color="#EECFF8"/>
<stop offset="0.9011" stop-color="white" stop-opacity="0"/>
</radialGradient>
<radialGradient id="paint1_radial" cx="0" cy="0" r="1" gradientUnits="userSpaceOnUse" gradientTransform="translate(601.358 371.933) scale(49.7762)">
<stop offset="0.3231" stop-color="#C184A8" stop-opacity="0.2102"/>
<stop offset="0.9171" stop-color="#0061FE"/>
</radialGradient>
<radialGradient id="paint2_radial" cx="0" cy="0" r="1" gradientUnits="userSpaceOnUse" gradientTransform="translate(597.269 360.971) scale(21.1174)">
<stop offset="0.1043" stop-color="#FFDE99"/>
<stop offset="0.1056" stop-color="#FFDE99" stop-opacity="0.9985"/>
<stop offset="0.268" stop-color="#E9BD9E" stop-opacity="0.8173"/>
<stop offset="0.4348" stop-color="#D7A4A3" stop-opacity="0.6311"/>
<stop offset="0.6085" stop-color="#CB92A6" stop-opacity="0.4371"/>
<stop offset="0.7917" stop-color="#C387A7" stop-opacity="0.2326"/>
<stop offset="1" stop-color="#C184A8" stop-opacity="0"/>
</radialGradient>
<radialGradient id="paint3_radial" cx="0" cy="0" r="1" gradientUnits="userSpaceOnUse" gradientTransform="translate(526.81 384.858) scale(55.273)">
<stop offset="0.3231" stop-color="#C184A8" stop-opacity="0.2102"/>
<stop offset="0.9171" stop-color="#0061FE"/>
</radialGradient>
<radialGradient id="paint4_radial" cx="0" cy="0" r="1" gradientUnits="userSpaceOnUse" gradientTransform="translate(528.391 370.624) scale(35.7736)">
<stop offset="0.1043" stop-color="#FFDE99"/>
<stop offset="0.1056" stop-color="#FFDE99" stop-opacity="0.9985"/>
<stop offset="0.268" stop-color="#E9BD9E" stop-opacity="0.8173"/>
<stop offset="0.4348" stop-color="#D7A4A3" stop-opacity="0.6311"/>
<stop offset="0.6085" stop-color="#CB92A6" stop-opacity="0.4371"/>
<stop offset="0.7917" stop-color="#C387A7" stop-opacity="0.2326"/>
<stop offset="1" stop-color="#C184A8" stop-opacity="0"/>
</radialGradient>
<radialGradient id="paint5_radial" cx="0" cy="0" r="1" gradientUnits="userSpaceOnUse" gradientTransform="translate(574.444 307.882) scale(29.5373)">
<stop offset="0.3231" stop-color="#C184A8" stop-opacity="0.2102"/>
<stop offset="0.9171" stop-color="#0061FE"/>
</radialGradient>
<radialGradient id="paint6_radial" cx="0" cy="0" r="1" gradientUnits="userSpaceOnUse" gradientTransform="translate(558.546 348.519) rotate(-12.7855) scale(170.166 62.1739)">
<stop offset="0.3231" stop-color="#C184A8" stop-opacity="0.2102"/>
<stop offset="0.9171" stop-color="#0061FE"/>
</radialGradient>
<radialGradient id="paint7_radial" cx="0" cy="0" r="1" gradientUnits="userSpaceOnUse" gradientTransform="translate(499.269 368.824) scale(34.1773)">
<stop offset="0.1043" stop-color="#FFDE99"/>
<stop offset="0.1056" stop-color="#FFDE99" stop-opacity="0.9985"/>
<stop offset="0.268" stop-color="#E9BD9E" stop-opacity="0.8173"/>
<stop offset="0.4348" stop-color="#D7A4A3" stop-opacity="0.6311"/>
<stop offset="0.6085" stop-color="#CB92A6" stop-opacity="0.4371"/>
<stop offset="0.7917" stop-color="#C387A7" stop-opacity="0.2326"/>
<stop offset="1" stop-color="#C184A8" stop-opacity="0"/>
</radialGradient>
<radialGradient id="paint8_radial" cx="0" cy="0" r="1" gradientUnits="userSpaceOnUse" gradientTransform="translate(575.674 369.315) scale(21.4095)">
<stop offset="0.1043" stop-color="#FFDE99"/>
<stop offset="0.1056" stop-color="#FFDE99" stop-opacity="0.9985"/>
<stop offset="0.268" stop-color="#E9BD9E" stop-opacity="0.8173"/>
<stop offset="0.4348" stop-color="#D7A4A3" stop-opacity="0.6311"/>
<stop offset="0.6085" stop-color="#CB92A6" stop-opacity="0.4371"/>
<stop offset="0.7917" stop-color="#C387A7" stop-opacity="0.2326"/>
<stop offset="1" stop-color="#C184A8" stop-opacity="0"/>
</radialGradient>
<radialGradient id="paint9_radial" cx="0" cy="0" r="1" gradientUnits="userSpaceOnUse" gradientTransform="translate(603.944 328.15) rotate(-17.4873) scale(49.4963 33.3164)">
<stop offset="0.1043" stop-color="#FFDE99"/>
<stop offset="0.1056" stop-color="#FFDE99" stop-opacity="0.9985"/>
<stop offset="0.268" stop-color="#E9BD9E" stop-opacity="0.8173"/>
<stop offset="0.4348" stop-color="#D7A4A3" stop-opacity="0.6311"/>
<stop offset="0.6085" stop-color="#CB92A6" stop-opacity="0.4371"/>
<stop offset="0.7917" stop-color="#C387A7" stop-opacity="0.2326"/>
<stop offset="1" stop-color="#C184A8" stop-opacity="0"/>
</radialGradient>
<radialGradient id="paint10_radial" cx="0" cy="0" r="1" gradientUnits="userSpaceOnUse" gradientTransform="translate(582.869 336.431) scale(26.9334)">
<stop stop-color="#0061FE"/>
<stop offset="0.0175" stop-color="#1B66F2"/>
<stop offset="0.0482" stop-color="#466EDF"/>
<stop offset="0.0825" stop-color="#6C75CE"/>
<stop offset="0.1196" stop-color="#8D7BBF"/>
<stop offset="0.1604" stop-color="#A980B3"/>
<stop offset="0.2062" stop-color="#C084A9"/>
<stop offset="0.2592" stop-color="#D187A1"/>
<stop offset="0.3238" stop-color="#DD899C"/>
<stop offset="0.4126" stop-color="#E48B99"/>
<stop offset="0.639" stop-color="#E68B98"/>
<stop offset="1" stop-color="#FB8F8F" stop-opacity="0"/>
</radialGradient>
<radialGradient id="paint11_radial" cx="0" cy="0" r="1" gradientUnits="userSpaceOnUse" gradientTransform="translate(596.818 311.277) scale(7.22501)">
<stop stop-color="#0144B9"/>
<stop offset="0.0286" stop-color="#0C47B7" stop-opacity="0.9606"/>
<stop offset="0.2403" stop-color="#5C5FAA" stop-opacity="0.6686"/>
<stop offset="0.3908" stop-color="#8E6EA1" stop-opacity="0.4611"/>
<stop offset="0.4648" stop-color="#A1749E" stop-opacity="0.3591"/>
<stop offset="0.4868" stop-color="#A7769D" stop-opacity="0.3443"/>
<stop offset="0.6368" stop-color="#CB8197" stop-opacity="0.2437"/>
<stop offset="0.7768" stop-color="#E68993" stop-opacity="0.1497"/>
<stop offset="0.9021" stop-color="#F58D90" stop-opacity="0.0657"/>
<stop offset="1" stop-color="#FB8F8F" stop-opacity="0"/>
</radialGradient>
<radialGradient id="paint12_radial" cx="0" cy="0" r="1" gradientUnits="userSpaceOnUse" gradientTransform="translate(627.477 334.25) scale(22.0834)">
<stop offset="0.3176" stop-color="#FB8F8F" stop-opacity="0"/>
<stop offset="0.3846" stop-color="#F58D90" stop-opacity="0.0982"/>
<stop offset="0.4703" stop-color="#E58993" stop-opacity="0.2238"/>
<stop offset="0.5662" stop-color="#CB8197" stop-opacity="0.3644"/>
<stop offset="0.6696" stop-color="#A6769D" stop-opacity="0.5158"/>
<stop offset="0.779" stop-color="#7768A5" stop-opacity="0.6762"/>
<stop offset="0.8915" stop-color="#3F57AF" stop-opacity="0.8411"/>
<stop offset="1" stop-color="#0144B9"/>
</radialGradient>
<radialGradient id="paint13_radial" cx="0" cy="0" r="1" gradientUnits="userSpaceOnUse" gradientTransform="translate(598.741 320.48) scale(9.58542 9.58557)">
<stop offset="0.3176" stop-color="#FB8F8F" stop-opacity="0"/>
<stop offset="0.3846" stop-color="#F58D90" stop-opacity="0.0982"/>
<stop offset="0.4703" stop-color="#E58993" stop-opacity="0.2238"/>
<stop offset="0.5662" stop-color="#CB8197" stop-opacity="0.3644"/>
<stop offset="0.6696" stop-color="#A6769D" stop-opacity="0.5158"/>
<stop offset="0.779" stop-color="#7768A5" stop-opacity="0.6762"/>
<stop offset="0.8915" stop-color="#3F57AF" stop-opacity="0.8411"/>
<stop offset="1" stop-color="#0144B9"/>
</radialGradient>
<radialGradient id="paint14_radial" cx="0" cy="0" r="1" gradientUnits="userSpaceOnUse" gradientTransform="translate(595.854 317.43) rotate(102.088) scale(11.7789 6.22196)">
<stop offset="0.3176" stop-color="#FB8F8F" stop-opacity="0"/>
<stop offset="0.3846" stop-color="#F58D90" stop-opacity="0.0982"/>
<stop offset="0.4703" stop-color="#E58993" stop-opacity="0.2238"/>
<stop offset="0.5662" stop-color="#CB8197" stop-opacity="0.3644"/>
<stop offset="0.6696" stop-color="#A6769D" stop-opacity="0.5158"/>
<stop offset="0.779" stop-color="#7768A5" stop-opacity="0.6762"/>
<stop offset="0.8915" stop-color="#3F57AF" stop-opacity="0.8411"/>
<stop offset="1" stop-color="#0144B9"/>
</radialGradient>
<radialGradient id="paint15_radial" cx="0" cy="0" r="1" gradientUnits="userSpaceOnUse" gradientTransform="translate(537.39 367.733) scale(57.6699)">
<stop offset="0.3231" stop-color="#C184A8" stop-opacity="0.2102"/>
<stop offset="0.9171" stop-color="#0061FE"/>
</radialGradient>
<radialGradient id="paint16_radial" cx="0" cy="0" r="1" gradientUnits="userSpaceOnUse" gradientTransform="translate(465.352 77.5891) scale(160.667)">
<stop stop-color="#0061FE"/>
<stop offset="0.0281" stop-color="#106CFE" stop-opacity="0.9719"/>
<stop offset="0.1219" stop-color="#408BFE" stop-opacity="0.8781"/>
<stop offset="0.2211" stop-color="#6AA7FE" stop-opacity="0.7789"/>
<stop offset="0.3241" stop-color="#8EBFFF" stop-opacity="0.6759"/>
<stop offset="0.4318" stop-color="#ABD2FF" stop-opacity="0.5682"/>
<stop offset="0.546" stop-color="#C2E1FF" stop-opacity="0.454"/>
<stop offset="0.6696" stop-color="#D2ECFF" stop-opacity="0.3304"/>
<stop offset="0.8094" stop-color="#DBF2FF" stop-opacity="0.1906"/>
<stop offset="1" stop-color="#DEF4FF" stop-opacity="0"/>
</radialGradient>
<radialGradient id="paint17_radial" cx="0" cy="0" r="1" gradientUnits="userSpaceOnUse" gradientTransform="translate(468.081 96.4826) scale(32.7946)">
<stop stop-color="#FB8F8F"/>
<stop offset="1" stop-color="#F9C1DA" stop-opacity="0"/>
</radialGradient>
<radialGradient id="paint18_radial" cx="0" cy="0" r="1" gradientUnits="userSpaceOnUse" gradientTransform="translate(472.367 86.3161) scale(50.5825)">
<stop stop-color="#FB8F8F"/>
<stop offset="1" stop-color="#F9C1DA" stop-opacity="0"/>
</radialGradient>
<radialGradient id="paint19_radial" cx="0" cy="0" r="1" gradientUnits="userSpaceOnUse" gradientTransform="translate(477.184 81.113) scale(50.5825)">
<stop stop-color="#FB8F8F"/>
<stop offset="1" stop-color="#F9C1DA" stop-opacity="0"/>
</radialGradient>
<radialGradient id="paint20_radial" cx="0" cy="0" r="1" gradientUnits="userSpaceOnUse" gradientTransform="translate(465.51 119.648) scale(119.008 78.1556)">
<stop stop-color="#0061FE"/>
<stop offset="0.0281" stop-color="#106CFE" stop-opacity="0.9719"/>
<stop offset="0.1219" stop-color="#408BFE" stop-opacity="0.8781"/>
<stop offset="0.2211" stop-color="#6AA7FE" stop-opacity="0.7789"/>
<stop offset="0.3241" stop-color="#8EBFFF" stop-opacity="0.6759"/>
<stop offset="0.4318" stop-color="#ABD2FF" stop-opacity="0.5682"/>
<stop offset="0.546" stop-color="#C2E1FF" stop-opacity="0.454"/>
<stop offset="0.6696" stop-color="#D2ECFF" stop-opacity="0.3304"/>
<stop offset="0.8094" stop-color="#DBF2FF" stop-opacity="0.1906"/>
<stop offset="1" stop-color="#DEF4FF" stop-opacity="0"/>
</radialGradient>
<radialGradient id="paint21_radial" cx="0" cy="0" r="1" gradientUnits="userSpaceOnUse" gradientTransform="translate(465.51 126.2) scale(119.008 78.1556)">
<stop stop-color="#0061FE"/>
<stop offset="0.0281" stop-color="#106CFE" stop-opacity="0.9719"/>
<stop offset="0.1219" stop-color="#408BFE" stop-opacity="0.8781"/>
<stop offset="0.2211" stop-color="#6AA7FE" stop-opacity="0.7789"/>
<stop offset="0.3241" stop-color="#8EBFFF" stop-opacity="0.6759"/>
<stop offset="0.4318" stop-color="#ABD2FF" stop-opacity="0.5682"/>
<stop offset="0.546" stop-color="#C2E1FF" stop-opacity="0.454"/>
<stop offset="0.6696" stop-color="#D2ECFF" stop-opacity="0.3304"/>
<stop offset="0.8094" stop-color="#DBF2FF" stop-opacity="0.1906"/>
<stop offset="1" stop-color="#DEF4FF" stop-opacity="0"/>
</radialGradient>
<radialGradient id="paint22_radial" cx="0" cy="0" r="1" gradientUnits="userSpaceOnUse" gradientTransform="translate(166.776 233.471) scale(53.7383)">
<stop stop-color="#FA404B"/>
<stop offset="0.025" stop-color="#FA484F" stop-opacity="0.975"/>
<stop offset="0.1916" stop-color="#FC7565" stop-opacity="0.8084"/>
<stop offset="0.3589" stop-color="#FD9B78" stop-opacity="0.6411"/>
<stop offset="0.5244" stop-color="#FEB886" stop-opacity="0.4756"/>
<stop offset="0.6876" stop-color="#FECD91" stop-opacity="0.3124"/>
<stop offset="0.8474" stop-color="#FFDA97" stop-opacity="0.1526"/>
<stop offset="1" stop-color="#FFDE99" stop-opacity="0"/>
</radialGradient>
<radialGradient id="paint23_radial" cx="0" cy="0" r="1" gradientUnits="userSpaceOnUse" gradientTransform="translate(251.085 217.329) scale(102.143)">
<stop offset="0.00534759" stop-color="#241921"/>
<stop offset="1" stop-color="#0061FE" stop-opacity="0"/>
</radialGradient>
<radialGradient id="paint24_radial" cx="0" cy="0" r="1" gradientUnits="userSpaceOnUse" gradientTransform="translate(382.294 358.681) scale(36.4914)">
<stop stop-color="#FA404B"/>
<stop offset="0.025" stop-color="#FA484F" stop-opacity="0.975"/>
<stop offset="0.1916" stop-color="#FC7565" stop-opacity="0.8084"/>
<stop offset="0.3589" stop-color="#FD9B78" stop-opacity="0.6411"/>
<stop offset="0.5244" stop-color="#FEB886" stop-opacity="0.4756"/>
<stop offset="0.6876" stop-color="#FECD91" stop-opacity="0.3124"/>
<stop offset="0.8474" stop-color="#FFDA97" stop-opacity="0.1526"/>
<stop offset="1" stop-color="#FFDE99" stop-opacity="0"/>
</radialGradient>
<radialGradient id="paint25_radial" cx="0" cy="0" r="1" gradientUnits="userSpaceOnUse" gradientTransform="translate(204.295 171.193) scale(176.629)">
<stop offset="0.00534759" stop-color="#241921"/>
<stop offset="1" stop-color="#0061FE" stop-opacity="0"/>
</radialGradient>
<radialGradient id="paint26_radial" cx="0" cy="0" r="1" gradientUnits="userSpaceOnUse" gradientTransform="translate(323.07 374.714) scale(108.216)">
<stop offset="0.00534759" stop-color="#241921"/>
<stop offset="1" stop-color="#0061FE" stop-opacity="0"/>
</radialGradient>
<radialGradient id="paint27_radial" cx="0" cy="0" r="1" gradientUnits="userSpaceOnUse" gradientTransform="translate(417.961 195.57) scale(23.1785)">
<stop stop-color="#FA404B"/>
<stop offset="0.025" stop-color="#FA484F"/>
<stop offset="0.1916" stop-color="#FC7565"/>
<stop offset="0.3589" stop-color="#FD9B78"/>
<stop offset="0.5244" stop-color="#FEB886"/>
<stop offset="0.6876" stop-color="#FECD91"/>
<stop offset="0.8474" stop-color="#FFDA97"/>
<stop offset="1" stop-color="#FFDE99"/>
</radialGradient>
<radialGradient id="paint28_radial" cx="0" cy="0" r="1" gradientUnits="userSpaceOnUse" gradientTransform="translate(376.496 197.955) rotate(4.60567) scale(21.97 10.5904)">
<stop stop-color="#FA404B"/>
<stop offset="0.025" stop-color="#FA484F" stop-opacity="0.975"/>
<stop offset="0.1916" stop-color="#FC7565" stop-opacity="0.8084"/>
<stop offset="0.3589" stop-color="#FD9B78" stop-opacity="0.6411"/>
<stop offset="0.5244" stop-color="#FEB886" stop-opacity="0.4756"/>
<stop offset="0.6876" stop-color="#FECD91" stop-opacity="0.3124"/>
<stop offset="0.8474" stop-color="#FFDA97" stop-opacity="0.1526"/>
<stop offset="1" stop-color="#FFDE99" stop-opacity="0"/>
</radialGradient>
<radialGradient id="paint29_radial" cx="0" cy="0" r="1" gradientUnits="userSpaceOnUse" gradientTransform="translate(317.835 136.509) scale(99.1647)">
<stop stop-color="#FB8F8F"/>
<stop offset="1" stop-color="#F9C1DA" stop-opacity="0"/>
</radialGradient>
<radialGradient id="paint30_radial" cx="0" cy="0" r="1" gradientUnits="userSpaceOnUse" gradientTransform="translate(351.373 109.024) scale(24.7175)">
<stop stop-color="#FA404B"/>
<stop offset="0.025" stop-color="#FA484F" stop-opacity="0.975"/>
<stop offset="0.1916" stop-color="#FC7565" stop-opacity="0.8084"/>
<stop offset="0.3589" stop-color="#FD9B78" stop-opacity="0.6411"/>
<stop offset="0.5244" stop-color="#FEB886" stop-opacity="0.4756"/>
<stop offset="0.6876" stop-color="#FECD91" stop-opacity="0.3124"/>
<stop offset="0.8474" stop-color="#FFDA97" stop-opacity="0.1526"/>
<stop offset="1" stop-color="#FFDE99" stop-opacity="0"/>
</radialGradient>
<radialGradient id="paint31_radial" cx="0" cy="0" r="1" gradientUnits="userSpaceOnUse" gradientTransform="translate(331.468 76.4128) scale(32.2111)">
<stop stop-color="#FA404B"/>
<stop offset="0.025" stop-color="#FA484F" stop-opacity="0.975"/>
<stop offset="0.1916" stop-color="#FC7565" stop-opacity="0.8084"/>
<stop offset="0.3589" stop-color="#FD9B78" stop-opacity="0.6411"/>
<stop offset="0.5244" stop-color="#FEB886" stop-opacity="0.4756"/>
<stop offset="0.6876" stop-color="#FECD91" stop-opacity="0.3124"/>
<stop offset="0.8474" stop-color="#FFDA97" stop-opacity="0.1526"/>
<stop offset="1" stop-color="#FFDE99" stop-opacity="0"/>
</radialGradient>
<radialGradient id="paint32_radial" cx="0" cy="0" r="1" gradientUnits="userSpaceOnUse" gradientTransform="translate(359.608 80.3391) scale(24.0173)">
<stop stop-color="#FA404B"/>
<stop offset="0.025" stop-color="#FA484F" stop-opacity="0.975"/>
<stop offset="0.1916" stop-color="#FC7565" stop-opacity="0.8084"/>
<stop offset="0.3589" stop-color="#FD9B78" stop-opacity="0.6411"/>
<stop offset="0.5244" stop-color="#FEB886" stop-opacity="0.4756"/>
<stop offset="0.6876" stop-color="#FECD91" stop-opacity="0.3124"/>
<stop offset="0.8474" stop-color="#FFDA97" stop-opacity="0.1526"/>
<stop offset="1" stop-color="#FFDE99" stop-opacity="0"/>
</radialGradient>
<radialGradient id="paint33_radial" cx="0" cy="0" r="1" gradientUnits="userSpaceOnUse" gradientTransform="translate(393.202 71.1773) scale(68.6385)">
<stop stop-color="#0061FE"/>
<stop offset="0.9947" stop-color="#241921"/>
</radialGradient>
<radialGradient id="paint34_radial" cx="0" cy="0" r="1" gradientUnits="userSpaceOnUse" gradientTransform="translate(226.218 142.399) scale(117.876)">
<stop stop-color="#FB8F8F"/>
<stop offset="1" stop-color="#F9C1DA" stop-opacity="0"/>
</radialGradient>
<radialGradient id="paint35_radial" cx="0" cy="0" r="1" gradientUnits="userSpaceOnUse" gradientTransform="translate(352.192 116.222) scale(58.8651)">
<stop stop-color="white"/>
<stop offset="1" stop-color="#F1D23C" stop-opacity="0"/>
</radialGradient>
<radialGradient id="paint36_radial" cx="0" cy="0" r="1" gradientUnits="userSpaceOnUse" gradientTransform="translate(223.273 136.4) scale(65.2931)">
<stop stop-color="#FA404B"/>
<stop offset="0.025" stop-color="#FA484F" stop-opacity="0.975"/>
<stop offset="0.1916" stop-color="#FC7565" stop-opacity="0.8084"/>
<stop offset="0.3589" stop-color="#FD9B78" stop-opacity="0.6411"/>
<stop offset="0.5244" stop-color="#FEB886" stop-opacity="0.4756"/>
<stop offset="0.6876" stop-color="#FECD91" stop-opacity="0.3124"/>
<stop offset="0.8474" stop-color="#FFDA97" stop-opacity="0.1526"/>
<stop offset="1" stop-color="#FFDE99" stop-opacity="0"/>
</radialGradient>
<linearGradient id="paint37_linear" x1="442.081" y1="99.4492" x2="423.322" y2="187.14" gradientUnits="userSpaceOnUse">
<stop offset="0.1791" stop-color="#F9C1DA"/>
<stop offset="1" stop-color="#EECFF8" stop-opacity="0"/>
</linearGradient>
<radialGradient id="paint38_radial" cx="0" cy="0" r="1" gradientUnits="userSpaceOnUse" gradientTransform="translate(417.225 197.697) scale(9.19815)">
<stop stop-color="#FA404B"/>
<stop offset="0.025" stop-color="#FA484F" stop-opacity="0.975"/>
<stop offset="0.1916" stop-color="#FC7565" stop-opacity="0.8084"/>
<stop offset="0.3589" stop-color="#FD9B78" stop-opacity="0.6411"/>
<stop offset="0.5244" stop-color="#FEB886" stop-opacity="0.4756"/>
<stop offset="0.6876" stop-color="#FECD91" stop-opacity="0.3124"/>
<stop offset="0.8474" stop-color="#FFDA97" stop-opacity="0.1526"/>
<stop offset="1" stop-color="#FFDE99" stop-opacity="0"/>
</radialGradient>
<radialGradient id="paint39_radial" cx="0" cy="0" r="1" gradientUnits="userSpaceOnUse" gradientTransform="translate(208.707 242.244) scale(14.9855)">
<stop stop-color="#FB8F8F"/>
<stop offset="1" stop-color="#F9C1DA" stop-opacity="0"/>
</radialGradient>
<radialGradient id="paint40_radial" cx="0" cy="0" r="1" gradientUnits="userSpaceOnUse" gradientTransform="translate(213.13 233.525) scale(29.7202)">
<stop stop-color="white"/>
<stop offset="1" stop-color="#F1D23C" stop-opacity="0"/>
</radialGradient>
<radialGradient id="paint41_radial" cx="0" cy="0" r="1" gradientUnits="userSpaceOnUse" gradientTransform="translate(231.126 202.823) scale(15.4404)">
<stop stop-color="#FA404B"/>
<stop offset="0.025" stop-color="#FA484F" stop-opacity="0.975"/>
<stop offset="0.1916" stop-color="#FC7565" stop-opacity="0.8084"/>
<stop offset="0.3589" stop-color="#FD9B78" stop-opacity="0.6411"/>
<stop offset="0.5244" stop-color="#FEB886" stop-opacity="0.4756"/>
<stop offset="0.6876" stop-color="#FECD91" stop-opacity="0.3124"/>
<stop offset="0.8474" stop-color="#FFDA97" stop-opacity="0.1526"/>
<stop offset="1" stop-color="#FFDE99" stop-opacity="0"/>
</radialGradient>
</defs>
</svg>
